<svg width="21" height="20" viewBox="0 0 21 20" fill="none" xmlns="http://www.w3.org/2000/svg">
<path d="M12.3584 3.55698H8.29805L6.26787 5.99319H3.83166C3.40091 5.99319 2.9878 6.1643 2.68322 6.46889C2.37863 6.77347 2.20752 7.18658 2.20752 7.61733V14.926C2.20752 15.3567 2.37863 15.7698 2.68322 16.0744C2.9878 16.379 3.40091 16.5501 3.83166 16.5501H16.8248C17.2555 16.5501 17.6686 16.379 17.9732 16.0744C18.2778 15.7698 18.4489 15.3567 18.4489 14.926V7.61733C18.4489 7.18658 18.2778 6.77347 17.9732 6.46889C17.6686 6.1643 17.2555 5.99319 16.8248 5.99319H14.3886L12.3584 3.55698Z" stroke="#43D79E" stroke-width="1.62414" stroke-linecap="round" stroke-linejoin="round"/>
<path d="M10.3283 13.3018C11.6738 13.3018 12.7645 12.2111 12.7645 10.8656C12.7645 9.52013 11.6738 8.4294 10.3283 8.4294C8.98282 8.4294 7.89209 9.52013 7.89209 10.8656C7.89209 12.2111 8.98282 13.3018 10.3283 13.3018Z" stroke="#43D79E" stroke-width="1.62414" stroke-linecap="round" stroke-linejoin="round"/>
</svg>
