<svg width="16" height="16" viewBox="0 0 16 16" fill="none" xmlns="http://www.w3.org/2000/svg">
<g clip-path="url(#clip0_2575_3202)">
<path fill-rule="evenodd" clip-rule="evenodd" d="M13.5236 2.78143L11.5314 0.753007C11.0613 0.274385 10.4002 0 9.71687 0H3.33173C2.48184 0 1.79057 0.667274 1.79057 1.48765V4.47531H1.54117C0.691277 4.47531 0 5.14258 0 5.96296V11.5185C0 12.3389 0.691277 13.0062 1.54117 13.0062H1.79057V14.5123C1.79057 15.3327 2.48184 16 3.33173 16H12.6683C13.5182 16 14.2094 15.3327 14.2094 14.5123V13.0062H14.4588C15.3087 13.0062 16 12.3389 16 11.5185V5.96296C16 5.14258 15.3087 4.47531 14.4588 4.47531H14.2094V4.44201C14.2094 3.8216 13.9658 3.23169 13.5236 2.78143ZM2.95444 1.48765C2.95444 1.28692 3.12378 1.12346 3.33173 1.12346H9.71687C10.0819 1.12346 10.4357 1.27025 10.6868 1.52597L12.679 3.5544C12.9155 3.79519 13.0456 4.11022 13.0456 4.44201V4.47531H2.95444V1.48765ZM14.8361 11.5185C14.8361 11.7192 14.6668 11.8827 14.4588 11.8827H1.54117C1.33322 11.8827 1.16387 11.7192 1.16387 11.5185V5.96296C1.16387 5.76223 1.33322 5.59876 1.54117 5.59876H14.4588C14.6668 5.59876 14.8361 5.76223 14.8361 5.96296V11.5185ZM13.0456 14.5123C13.0456 14.7131 12.8762 14.8765 12.6683 14.8765H3.33173C3.12378 14.8765 2.95444 14.7131 2.95444 14.5123V13.0062H13.0456V14.5123Z" fill="#43D79E"/>
<path d="M4.34366 6.83191H3.43121C3.31662 6.83191 3.20672 6.87564 3.1258 6.95344C3.04488 7.03123 2.99963 7.13672 3 7.24659L3.00636 10.3866C3.00636 10.6149 3.19942 10.8 3.43756 10.8C3.6757 10.8 3.86876 10.6149 3.86876 10.3866V9.43323C4.04507 9.43237 4.23342 9.43163 4.34366 9.43163C5.10131 9.43163 5.71773 8.84851 5.71773 8.13177C5.71773 7.41503 5.10131 6.83191 4.34366 6.83191V6.83191ZM4.34366 8.6049C4.23244 8.6049 4.0434 8.60565 3.86641 8.60653C3.86549 8.43055 3.86468 8.24103 3.86468 8.13177C3.86468 8.03827 3.86419 7.84258 3.86367 7.65863H4.34363C4.62098 7.65863 4.8553 7.87529 4.8553 8.13177C4.8553 8.38825 4.62101 8.6049 4.34366 8.6049V8.6049Z" fill="#43D79E"/>
<path d="M8.01153 6.83191H7.11089C6.99639 6.83191 6.88658 6.87556 6.80569 6.95324C6.72479 7.03093 6.67946 7.13628 6.67969 7.24604C6.67969 7.24607 6.6861 10.2841 6.68613 10.2952C6.68656 10.4048 6.73238 10.5098 6.81356 10.5871C6.89437 10.6639 7.00355 10.707 7.11733 10.707H7.11897C7.14619 10.7069 7.7886 10.7046 8.04543 10.7003C9.01977 10.684 9.72695 9.87194 9.72695 8.76948C9.72692 7.61057 9.03757 6.83191 8.01153 6.83191V6.83191ZM8.03036 9.87371C7.91868 9.87558 7.72654 9.8771 7.5471 9.8782C7.54589 9.51915 7.54353 8.03176 7.54287 7.65863H8.01153C8.80302 7.65863 8.86451 8.50889 8.86451 8.76951C8.86451 9.31217 8.60659 9.86406 8.03036 9.87371Z" fill="#43D79E"/>
<path d="M12.569 7.62671C12.8071 7.62671 13.0002 7.44164 13.0002 7.21335C13.0002 6.98506 12.8071 6.79999 12.569 6.79999H11.2505C11.0124 6.79999 10.8193 6.98506 10.8193 7.21335V10.3317C10.8193 10.56 11.0124 10.7451 11.2505 10.7451C11.4887 10.7451 11.6817 10.56 11.6817 10.3317V9.15638H12.4642C12.7024 9.15638 12.8954 8.9713 12.8954 8.74301C12.8954 8.51473 12.7024 8.32965 12.4642 8.32965H11.6817V7.62671H12.569Z" fill="#43D79E"/>
</g>
<defs>
<clipPath id="clip0_2575_3202">
<rect width="16" height="16" fill="white"/>
</clipPath>
</defs>
</svg>
