<svg width="16" height="19" viewBox="0 0 16 19" fill="none" xmlns="http://www.w3.org/2000/svg">
<path d="M8 7.827C7.0375 7.827 6.21358 7.48425 5.52825 6.79875C4.84275 6.11342 4.5 5.2895 4.5 4.327C4.5 3.3645 4.84275 2.5405 5.52825 1.855C6.21358 1.16967 7.0375 0.827001 8 0.827001C8.9625 0.827001 9.78642 1.16967 10.4718 1.855C11.1573 2.5405 11.5 3.3645 11.5 4.327C11.5 5.2895 11.1573 6.11342 10.4718 6.79875C9.78642 7.48425 8.9625 7.827 8 7.827ZM8 6.327C8.55 6.327 9.02083 6.13117 9.4125 5.7395C9.80417 5.34783 10 4.877 10 4.327C10 3.777 9.80417 3.30617 9.4125 2.9145C9.02083 2.52283 8.55 2.327 8 2.327C7.45 2.327 6.97917 2.52283 6.5875 2.9145C6.19583 3.30617 6 3.777 6 4.327C6 4.877 6.19583 5.34783 6.5875 5.7395C6.97917 6.13117 7.45 6.327 8 6.327ZM0.5 18.9808V13.0423C0.5 12.5526 0.62975 12.099 0.88925 11.6815C1.14875 11.2642 1.5075 10.9383 1.9655 10.7038C2.809 10.2833 3.74425 9.93583 4.77125 9.6615C5.79808 9.38717 6.87433 9.25 8 9.25C9.12567 9.25 10.2019 9.38717 11.2288 9.6615C12.2558 9.93583 13.191 10.2833 14.0345 10.7038C14.4925 10.9383 14.8513 11.2642 15.1108 11.6815C15.3702 12.099 15.5 12.5528 15.5 13.043V17.173C15.5 17.6782 15.325 18.1058 14.975 18.4558C14.625 18.8058 14.1974 18.9808 13.6923 18.9808H6C5.32317 18.9808 4.75333 18.7493 4.2905 18.2865C3.82767 17.8237 3.59625 17.2538 3.59625 16.5768C3.59625 15.8999 3.82767 15.3301 4.2905 14.8673C4.75333 14.4044 5.32317 14.173 6 14.173H8.95L10.4712 11.0365C10.0802 10.9378 9.66808 10.8654 9.23475 10.8193C8.80125 10.7731 8.38967 10.75 8 10.75C6.92183 10.75 5.9305 10.8798 5.026 11.1395C4.1215 11.399 3.33592 11.6999 2.66925 12.0423C2.45775 12.1449 2.29333 12.2866 2.176 12.4673C2.05867 12.6481 2 12.8398 2 13.0423V18.9808H0.5ZM6 17.4808H7.373L8.24625 15.673H6C5.75517 15.673 5.54333 15.7624 5.3645 15.9412C5.18567 16.1201 5.09625 16.3319 5.09625 16.5768C5.09625 16.8218 5.18567 17.0337 5.3645 17.2125C5.54333 17.3913 5.75517 17.4808 6 17.4808ZM9.025 17.4808H13.6923C13.7821 17.4808 13.8558 17.4519 13.9135 17.3943C13.9712 17.3366 14 17.2628 14 17.173V13.0423C14 12.8398 13.9382 12.6481 13.8145 12.4673C13.6907 12.2866 13.5346 12.1449 13.3462 12.0423C13.1397 11.9359 12.9183 11.8318 12.6818 11.7298C12.4453 11.6279 12.2001 11.5302 11.9462 11.4365L9.025 17.4808Z" fill="#232A2E"/>
</svg>
